<?xml version="1.0" encoding="UTF-8"?>
<svg width="1200px" height="1200px" viewBox="0 0 1200 1200" version="1.1" xmlns="http://www.w3.org/2000/svg" xmlns:xlink="http://www.w3.org/1999/xlink">
    <title>ice-cream-design</title>
    <g id="ice-cream-design" stroke="none" stroke-width="1" fill="none" fill-rule="evenodd">
        <g id="sky" transform="translate(0.000000, -23.566745)">
            <rect id="background-sky" fill="#A2E1E3" x="0" y="23.566745" width="1200" height="1012"></rect>
            <g id="clouds" transform="translate(48.060539, 86.728749)" fill="#D8F6FF" stroke="#C1E9F4" stroke-linejoin="round" stroke-width="12">
                <path d="M1062.57649,511.510097 C1070.38273,517.19972 1109.41398,549.91505 1054.06058,574.807148 C1005.80377,589.742408 971.740144,573.384743 965.353213,574.807148 C958.966283,576.229554 874.51687,582.630379 866.000963,566.983917 C859.37748,552.759861 864.581645,540.195278 881.61346,529.290168 C875.936188,520.755734 874.989976,512.695435 878.774824,505.109272 C882.559672,497.523108 889.892814,492.781756 900.774251,490.885215 C899.354933,451.531993 918.752277,420.950271 958.966283,399.140051 C978.127074,435.411395 985.223663,439.678612 1013.61002,439.678612 C1041.99638,439.678612 1044.83501,476.661159 1041.99638,479.50597 C1052.64126,481.639579 1063.9958,488.751607 1062.57649,511.510097 Z" id="cloud-3" transform="translate(973.219100, 490.140051) rotate(5.000000) translate(-973.219100, -490.140051) "></path>
                <path d="M929.306667,158.34037 C939.45479,165.749384 990.195403,208.351214 918.235988,240.765651 C855.502139,260.214313 811.219421,238.913397 802.916412,240.765651 C794.613402,242.617904 684.829166,250.953045 673.758487,230.578256 C665.147958,212.055721 671.913374,195.694149 694.054732,181.493539 C686.674279,170.380018 685.444204,159.883914 690.364506,150.005229 C695.284808,140.126544 704.817893,133.952365 718.963761,131.482694 C717.118647,80.2370137 742.335195,40.4135633 794.613402,12.0123429 C819.522431,59.2448073 828.747997,64.8015678 865.650261,64.8015678 C902.552526,64.8015678 906.242752,112.960159 902.552526,116.664666 C916.390875,119.443046 931.15178,128.704314 929.306667,158.34037 Z" id="cloud-2" transform="translate(813.142065, 130.512343) rotate(-5.000000) translate(-813.142065, -130.512343) "></path>
                <path d="M158.922073,475.917705 C164.918691,480.294337 194.901781,505.459976 152.380308,524.607744 C115.310307,536.096405 89.1432464,523.513586 84.2369227,524.607744 C79.3305989,525.701902 14.4580956,530.625614 7.91633056,518.589874 C2.82829109,507.648292 6.82603639,497.983228 19.9095665,489.594682 C15.5483898,483.029733 14.821527,476.829503 17.7289781,470.993993 C20.6364292,465.158483 26.2696158,461.511289 34.6285378,460.052411 C33.5382436,429.780701 48.4389306,406.2563 79.3305989,389.479208 C94.0495702,417.380242 99.5010411,420.662716 121.306925,420.662716 C143.112808,420.662716 145.293396,449.110829 143.112808,451.299145 C151.290014,452.940383 160.012368,458.411174 158.922073,475.917705 Z" id="cloud-1" transform="translate(90.279354, 459.479208) rotate(5.000000) translate(-90.279354, -459.479208) "></path>
            </g>
            <g id="ice-cream" transform="translate(393.872995, 384.969289) rotate(-10.000000) translate(-393.872995, -384.969289) translate(232.536386, 266.577440)">
                <path d="M164.24776,5.28369961 C201.621706,5.28369961 235.466111,19.0130804 259.961356,41.2382555 C284.364292,63.379676 299.482952,93.960568 299.482952,127.754433 C299.482952,145.097438 295.436254,158.824108 288.081888,169.619103 C287.431468,170.573811 286.75024,171.512836 286.039131,172.43435 C287.144756,172.693358 288.242445,173.011139 289.327339,173.388152 C295.675521,175.594217 301.109689,179.662966 304.923542,184.918371 C308.618377,190.00977 310.789572,196.216515 310.789572,202.915279 C310.789572,211.568792 307.165433,219.399319 301.317404,225.068933 C295.440905,230.76615 287.320893,234.2837 278.355361,234.2837 C267.0697,234.2837 257.120818,228.709047 251.305441,220.229684 C250.545154,219.121115 249.856632,217.964521 249.242765,216.771165 C248.629692,217.966612 247.941687,219.122083 247.182058,220.22962 C241.366278,228.709006 231.417378,234.2837 220.131677,234.2837 C209.935444,234.2837 200.83174,229.73371 194.879705,222.602495 C194.198549,221.786392 193.558034,220.935722 192.960045,220.054121 C192.362582,220.935794 191.722123,221.786464 191.041019,222.602563 C185.08944,229.733754 175.98576,234.2837 165.789572,234.2837 C155.065019,234.2837 145.548473,229.249794 139.637787,221.473078 C138.920236,220.528993 138.255858,219.544526 137.64671,218.525128 C137.038497,219.544748 136.374298,220.529212 135.656911,221.473288 C129.747576,229.249927 120.231096,234.2837 109.506677,234.2837 C98.7821243,234.2837 89.2655782,229.249794 83.3548922,221.473078 C82.6373413,220.528993 81.9729633,219.544526 81.3638152,218.525128 C80.7556022,219.544748 80.0914028,220.529212 79.374016,221.473288 C73.4646816,229.249927 63.9482014,234.2837 53.2237824,234.2837 C44.2582505,234.2837 36.1382389,230.76615 30.2617397,225.068933 C24.4137106,219.399319 20.7895718,211.568792 20.7895718,202.915279 C20.7895718,196.685846 22.6669792,190.881718 25.9016279,186.004503 C29.2537165,180.950211 34.0605954,176.890221 39.7461813,174.374418 C40.7112457,173.947388 41.6922097,173.569016 42.6837658,173.237919 C42.025454,172.393026 41.3936799,171.534377 40.7879584,170.662187 C33.1832521,159.712033 29.0125684,145.659357 29.0125684,127.754433 C29.0125684,93.960568 44.1312282,63.379676 68.5341642,41.2382555 C93.0294095,19.0130804 126.873814,5.28369961 164.24776,5.28369961 Z" id="ic-scoop" stroke="#AFCA99" stroke-width="5" fill="#DCEECD"></path>
                <g id="ic-sprinkles" transform="translate(-0.000000, 138.911283)">
                    <path d="M306.515663,64.0109536 C305.971565,66.0174944 303.9093,67.2081013 301.899552,66.6759721 L276.131775,59.8533318 C274.137442,59.3252841 272.948783,57.2804905 273.47683,55.2861576 C273.47873,55.2789833 273.480651,55.2718148 273.482593,55.2646519 C274.026692,53.2581112 276.088957,52.0675043 278.098705,52.5996335 L303.866482,59.4222738 C305.860815,59.9503215 307.049474,61.995115 306.521426,63.989448 C306.519527,63.9966222 306.517606,64.0037908 306.515663,64.0109536 Z" id="sprinkle-21" fill="#7F74FF"></path>
                    <path d="M321.689753,41.3008898 C321.145655,43.3074305 319.08339,44.4980375 317.073642,43.9659082 L291.305864,37.1432679 C289.311531,36.6152202 288.122872,34.5704267 288.65092,32.5760937 C288.65282,32.5689195 288.654741,32.5617509 288.656683,32.5545881 C289.200781,30.5480474 291.263046,29.3574404 293.272794,29.8895696 L319.040572,36.7122099 C321.034905,37.2402576 322.223564,39.2850512 321.695516,41.2793841 C321.693616,41.2865584 321.691695,41.293727 321.689753,41.3008898 Z" id="sprinkle-20" fill="#5CAAFB"></path>
                    <path d="M319.310951,14.480351 C318.766853,16.4868917 316.704588,17.6774986 314.69484,17.1453694 L288.927063,10.3227291 C286.93273,9.79468138 285.744071,7.74988785 286.272119,5.75555492 C286.274018,5.74838066 286.275939,5.74121207 286.277881,5.73404925 C286.82198,3.72750853 288.884245,2.53690157 290.893993,3.06903081 L316.66177,9.8916711 C318.656103,10.4197188 319.844762,12.4645124 319.316714,14.4588453 C319.314815,14.4660196 319.312894,14.4731881 319.310951,14.480351 Z" id="sprinkle-19" fill="#DA9DFF"></path>
                    <path d="M282.877873,42.580721 C282.333775,44.5872618 280.27151,45.7778687 278.261762,45.2457395 L252.493984,38.4230992 C250.499651,37.8950515 249.310992,35.8502579 249.83904,33.855925 C249.84094,33.8487508 249.842861,33.8415822 249.844803,33.8344193 C250.388901,31.8278786 252.451166,30.6372717 254.460914,31.1694009 L280.228692,37.9920412 C282.223025,38.5200889 283.411684,40.5648825 282.883636,42.5592154 C282.881736,42.5663896 282.879815,42.5735582 282.877873,42.580721 Z" id="sprinkle-18" fill="#F66A93"></path>
                    <path d="M287.335644,23.0582142 C286.791546,25.0647549 284.729281,26.2553618 282.719533,25.7232326 L256.951756,18.9005923 C254.957423,18.3725446 253.768764,16.3277511 254.296811,14.3334181 C254.298711,14.3262439 254.300632,14.3190753 254.302574,14.3119125 C254.846673,12.3053717 256.908938,11.1147648 258.918686,11.646894 L284.686463,18.4695343 C286.680796,18.997582 287.869455,21.0423756 287.341407,23.0367085 C287.339508,23.0438828 287.337587,23.0510514 287.335644,23.0582142 Z" id="sprinkle-17" fill="#F09FD4"></path>
                    <path d="M263.995282,57.5288898 C263.451184,59.5354305 261.388919,60.7260374 259.37917,60.1939082 L233.611393,53.3712679 C231.61706,52.8432202 230.428401,50.7984267 230.956449,48.8040937 C230.958348,48.7969195 230.960269,48.7897509 230.962212,48.7825881 C231.50631,46.7760473 233.568575,45.5854404 235.578323,46.1175696 L261.3461,52.9402099 C263.340433,53.4682576 264.529092,55.5130512 264.001045,57.5073841 C263.999145,57.5145584 263.997224,57.5217269 263.995282,57.5288898 Z" id="sprinkle-16" fill="#5CAAFB"></path>
                    <path d="M240.183843,37.0834649 C239.639745,39.0900056 237.57748,40.2806126 235.567732,39.7484834 L209.799955,32.9258431 C207.805622,32.3977953 206.616963,30.3530018 207.14501,28.3586689 C207.14691,28.3514946 207.148831,28.344326 207.150773,28.3371632 C207.694871,26.3306225 209.757137,25.1400155 211.766885,25.6721448 L237.534662,32.4947851 C239.528995,33.0228328 240.717654,35.0676263 240.189606,37.0619592 C240.187707,37.0691335 240.185786,37.0763021 240.183843,37.0834649 Z" id="sprinkle-15" fill="#7F74FF"></path>
                    <path d="M208.037292,63.9088122 C207.493194,65.9153529 205.430929,67.1059599 203.421181,66.5738307 L177.653404,59.7511904 C175.659071,59.2231426 174.470412,57.1783491 174.998459,55.1840162 C175.000359,55.1768419 175.00228,55.1696733 175.004222,55.1625105 C175.54832,53.1559698 177.610585,51.9653628 179.620334,52.4974921 L205.388111,59.3201324 C207.382444,59.8481801 208.571103,61.8929736 208.043055,63.8873065 C208.041156,63.8944808 208.039235,63.9016494 208.037292,63.9088122 Z" id="sprinkle-14" fill="#F09FD4"></path>
                    <path d="M220.837389,48.9035622 C220.293291,50.9101029 218.231026,52.1007099 216.221278,51.5685806 L190.4535,44.7459403 C188.459167,44.2178926 187.270508,42.1730991 187.798556,40.1787662 C187.800456,40.1715919 187.802376,40.1644233 187.804319,40.1572605 C188.348417,38.1507198 190.410682,36.9601128 192.42043,37.492242 L218.188207,44.3148823 C220.18254,44.8429301 221.371199,46.8877236 220.843152,48.8820565 C220.841252,48.8892308 220.839331,48.8963994 220.837389,48.9035622 Z" id="sprinkle-13" fill="#DA9DFF"></path>
                    <path d="M165.112533,65.4788585 C164.568435,67.4853992 162.50617,68.6760062 160.496422,68.143877 L134.728644,61.3212367 C132.734311,60.793189 131.545652,58.7483954 132.0737,56.7540625 C132.0756,56.7468882 132.077521,56.7397196 132.079463,56.7325568 C132.623561,54.7260161 134.685826,53.5354091 136.695574,54.0675384 L162.463352,60.8901787 C164.457685,61.4182264 165.646344,63.4630199 165.118296,65.4573529 C165.116396,65.4645271 165.114475,65.4716957 165.112533,65.4788585 Z" id="sprinkle-12" fill="#5CAAFB"></path>
                    <path d="M173.79975,50.7638235 C173.255652,52.7703643 171.193387,53.9609712 169.183639,53.428842 L143.415862,46.6062017 C141.421529,46.078154 140.23287,44.0333604 140.760918,42.0390275 C140.762817,42.0318532 140.764738,42.0246847 140.76668,42.0175218 C141.310779,40.0109811 143.373044,38.8203742 145.382792,39.3525034 L171.150569,46.1751437 C173.144902,46.7031914 174.333561,48.7479849 173.805513,50.7423179 C173.803614,50.7494921 173.801693,50.7566607 173.79975,50.7638235 Z" id="sprinkle-11" fill="#7F74FF"></path>
                    <path d="M180.343704,36.6863 C179.799606,38.6928407 177.737341,39.8834476 175.727593,39.3513184 L149.959815,32.5286781 C147.965483,32.0006304 146.776823,29.9558369 147.304871,27.9615039 C147.306771,27.9543297 147.308692,27.9471611 147.310634,27.9399983 C147.854732,25.9334575 149.916997,24.7428506 151.926745,25.2749798 L177.694523,32.0976201 C179.688856,32.6256678 180.877515,34.6704614 180.349467,36.6647943 C180.347567,36.6719686 180.345646,36.6791371 180.343704,36.6863 Z" id="sprinkle-10" fill="#F09FD4"></path>
                    <path d="M127.283057,49.6696616 C126.738958,51.6762024 124.676693,52.8668093 122.666945,52.3346801 L96.8991679,45.5120398 C94.9048349,44.9839921 93.7161759,42.9391985 94.2442237,40.9448656 C94.2461232,40.9376913 94.2480441,40.9305228 94.2499864,40.9233599 C94.7940847,38.9168192 96.8563497,37.7262123 98.8660978,38.2583415 L124.633875,45.0809818 C126.628208,45.6090295 127.816867,47.653823 127.288819,49.648156 C127.28692,49.6553302 127.284999,49.6624988 127.283057,49.6696616 Z" id="sprinkle-9" fill="#F66A93"></path>
                    <path d="M138.113538,34.3171153 C137.569439,36.323656 135.507174,37.5142629 133.497426,36.9821337 L107.729649,30.1594934 C105.735316,29.6314457 104.546657,27.5866522 105.074705,25.5923192 C105.076604,25.585145 105.078525,25.5779764 105.080467,25.5708136 C105.624566,23.5642728 107.686831,22.3736659 109.696579,22.9057951 L135.464356,29.7284354 C137.458689,30.2564831 138.647348,32.3012767 138.1193,34.2956096 C138.117401,34.3027839 138.11548,34.3099525 138.113538,34.3171153 Z" id="sprinkle-8" fill="#DA9DFF"></path>
                    <path d="M93.2215671,52.8025416 C92.6774688,54.8090823 90.6152038,55.9996892 88.6054558,55.46756 L62.8376784,48.6449197 C60.8433455,48.116872 59.6546865,46.0720785 60.1827342,44.0777455 C60.1846338,44.0705713 60.1865547,44.0634027 60.188497,44.0562399 C60.7325953,42.0496991 62.7948603,40.8590922 64.8046083,41.3912214 L90.5723857,48.2138617 C92.5667186,48.7419094 93.7553776,50.786703 93.2273299,52.7810359 C93.2254303,52.7882102 93.2235094,52.7953787 93.2215671,52.8025416 Z" id="sprinkle-7" fill="#F09FD4"></path>
                    <path d="M99.5323871,28.5296441 C98.9882888,30.5361848 96.9260237,31.7267918 94.9162757,31.1946625 L69.1484984,24.3720222 C67.1541654,23.8439745 65.9655064,21.799181 66.4935542,19.8048481 C66.4954537,19.7976738 66.4973746,19.7905052 66.4993169,19.7833424 C67.0434152,17.7768017 69.1056802,16.5861947 71.1154283,17.1183239 L96.8832056,23.9409642 C98.8775385,24.469012 100.066198,26.5138055 99.5381498,28.5081384 C99.5362503,28.5153127 99.5343293,28.5224813 99.5323871,28.5296441 Z" id="sprinkle-6" fill="#5CAAFB"></path>
                    <path d="M60.3185336,55.1242619 C59.7744353,57.1308026 57.7121703,58.3214096 55.7024223,57.7892803 L29.9346449,50.9666401 C27.940312,50.4385923 26.751653,48.3937988 27.2797007,46.3994659 C27.2816002,46.3922916 27.2835212,46.385123 27.2854635,46.3779602 C27.8295618,44.3714195 29.8918268,43.1808125 31.9015748,43.7129418 L57.6693521,50.535582 C59.6636851,51.0636298 60.8523441,53.1084233 60.3242964,55.1027562 C60.3223968,55.1099305 60.3204759,55.1170991 60.3185336,55.1242619 Z" id="sprinkle-5" fill="#5CAAFB"></path>
                    <path d="M72.0172555,34.8476768 C71.4731572,36.8542175 69.4108922,38.0448244 67.4011442,37.5126952 L41.6333668,30.6900549 C39.6390339,30.1620072 38.4503749,28.1172137 38.9784226,26.1228807 C38.9803222,26.1157065 38.9822431,26.1085379 38.9841854,26.1013751 C39.5282837,24.0948343 41.5905487,22.9042274 43.6002967,23.4363566 L69.3680741,30.2589969 C71.362407,30.7870446 72.551066,32.8318382 72.0230183,34.8261711 C72.0211187,34.8333454 72.0191978,34.8405139 72.0172555,34.8476768 Z" id="sprinkle-4" fill="#DA9DFF"></path>
                    <path d="M34.0165351,37.285964 C33.4724368,39.2925047 31.4101718,40.4831116 29.4004237,39.9509824 L3.63264638,33.1283421 C1.63831345,32.6002944 0.449654435,30.5555009 0.977702159,28.5611679 C0.979601719,28.5539937 0.981522654,28.5468251 0.98346494,28.5396623 C1.52756324,26.5331215 3.58982824,25.3425146 5.59957626,25.8746438 L31.3673536,32.6972841 C33.3616865,33.2253318 34.5503456,35.2701254 34.0222978,37.2644583 C34.0203983,37.2716326 34.0184773,37.2788011 34.0165351,37.285964 Z" id="sprinkle-3" fill="#7F74FF"></path>
                    <path d="M59.733295,12.3731509 C59.1891967,14.3796916 57.1269317,15.5702985 55.1171837,15.0381693 L29.3494063,8.215529 C27.3550734,7.68748128 26.1664144,5.64268775 26.6944621,3.64835482 C26.6963617,3.64118055 26.6982826,3.63401196 26.7002249,3.62684915 C27.2443232,1.62030843 29.3065882,0.429701468 31.3163362,0.961830708 L57.0841136,7.784471 C59.0784465,8.31251872 60.2671055,10.3573123 59.7390578,12.3516452 C59.7371582,12.3588194 59.7352373,12.365988 59.733295,12.3731509 Z" id="sprinkle-2" fill="#F09FD4"></path>
                    <path d="M35.1725868,19.212128 C34.6284885,21.2186688 32.5662234,22.4092757 30.5564754,21.8771465 L4.78869807,15.0545062 C2.79436514,14.5264585 1.60570613,12.4816649 2.13375385,10.487332 C2.13565341,10.4801577 2.13757435,10.4729892 2.13951663,10.4658263 C2.68361493,8.45928563 4.74587994,7.26867866 6.75562795,7.8008079 L32.5234053,14.6234482 C34.5177382,15.1514959 35.7063973,17.1962894 35.1783495,19.1906224 C35.17645,19.1977966 35.174529,19.2049652 35.1725868,19.212128 Z" id="sprinkle-1" fill="#F66A93"></path>
                </g>
                <path d="M299.598602,99.2911007 C305.050253,132.084492 278.700607,69.2304922 266.888697,82.8944052 C255.076787,96.5583181 255.985396,112.955014 241.44766,112.955014 C226.909925,112.955014 220.549665,73.7851299 207.829147,73.7851299 C195.108628,73.7851299 203.286104,123.886144 185.113935,123.886144 C166.941766,123.886144 167.850374,82.8944052 155.129856,82.8944052 C142.409337,82.8944052 142.409337,106.578521 128.78021,106.578521 C115.151083,106.578521 117.876908,79.2506951 109.699432,79.2506951 C101.521956,79.2506951 102.430564,126.618927 82.4411781,123.886144 C62.4517918,121.153361 72.4464849,82.8944052 64.2690087,82.8944052 C56.0915325,82.8944052 51.5484902,112.955014 41.553797,110.222231 C31.5591038,107.489448 30.6504954,93.8255355 34.2849293,82.8944052 C37.9193631,71.9632748 77.8981357,2.13162821e-14 164.21594,2.13162821e-14 C250.533745,2.13162821e-14 294.146951,66.4977096 299.598602,99.2911007 Z" id="ic-chocolate" stroke="#1F0902" stroke-width="5" fill="#331308"></path>
            </g>
            <g id="candies" transform="translate(60.000000, 78.566745)">
                <circle id="candy-10" fill="#5CAAFB" transform="translate(97.868132, 91.835165) scale(-1, 1) translate(-97.868132, -91.835165) " cx="97.8681319" cy="91.8351648" r="8.71428571"></circle>
                <circle id="candy-9" fill="#F09FD4" transform="translate(124.010989, 63.681319) scale(-1, 1) translate(-124.010989, -63.681319) " cx="124.010989" cy="63.6813187" r="8.71428571"></circle>
                <circle id="candy-8" fill="#DA9DFF" transform="translate(127.362637, 26.142857) scale(-1, 1) translate(-127.362637, -26.142857) " cx="127.362637" cy="26.1428571" r="8.71428571"></circle>
                <circle id="candy-7" fill="#5CAAFB" transform="translate(97.868132, 8.714286) scale(-1, 1) translate(-97.868132, -8.714286) " cx="97.8681319" cy="8.71428571" r="8.71428571"></circle>
                <circle id="candy-6" fill="#F09FD4" cx="67.7032967" cy="32.1758242" r="8.71428571"></circle>
                <circle id="candy-5" fill="#DA9DFF" cx="38.2087912" cy="8.71428571" r="8.71428571"></circle>
                <circle id="candy-4" fill="#F09FD4" cx="8.71428571" cy="26.1428571" r="8.71428571"></circle>
                <circle id="candy-3" fill="#5CAAFB" cx="12.0659341" cy="63.6813187" r="8.71428571"></circle>
                <circle id="candy-2" fill="#F09FD4" cx="38.2087912" cy="91.8351648" r="8.71428571"></circle>
                <circle id="candy-1" fill="#DA9DFF" cx="67.7032967" cy="113.285714" r="8.71428571"></circle>
            </g>
            <g id="cherry" transform="translate(1092.668387, 98.566745) rotate(-13.000000) translate(-1092.668387, -98.566745) translate(1040.000000, 9.566745)" stroke="#6A001C" stroke-width="8">
                <path d="M35.5796254,90.2316381 C42.4390692,89.5406762 48.5035031,90.5176886 52.5686704,92.5287507 C56.3901284,90.5299854 62.3569168,89.5148023 69.3190548,90.26447 C76.3434464,91.0208411 84.2568602,93.4445009 91.1518961,97.837306 C101.332129,104.323099 109.336774,115.010451 109.336774,130.853299 C109.336774,148.635005 103.655641,160.839761 94.6321669,168.917226 C84.3322149,178.137344 69.4042313,182 52.668387,182 C35.9325427,182 21.0045591,178.137344 10.7046071,168.917226 C1.68113298,160.839761 -4,148.635005 -4,130.853299 C-4,114.792213 3.9338682,104.049877 14.0619677,97.5972977 C20.8165928,93.2939478 28.5764116,90.9370823 35.5796254,90.2316381 Z" id="cherry-fruit" fill="#A21238"></path>
                <path d="M53.9324753,94 C49.3108251,48.6666667 60.3333333,17.3333333 87,0" id="cherry-stem" stroke-linecap="round"></path>
            </g>
        </g>
        <g id="land" transform="translate(0.000000, 721.389269)">
            <path d="M0,133.591864 C177.604167,111.604442 333.463542,100.610731 467.578125,100.610731 C601.692708,100.610731 845.833333,111.604442 1200,133.591864 L1200,290.610731 L0,290.610731 L0,133.591864 Z" id="background-strawberry" fill="#FCDFF2"></path>
            <path d="M0,236.610731 C364.583333,209.277398 614.583333,195.610731 750,195.610731 C885.416667,195.610731 1035.41667,209.277398 1200,236.610731 L1200,455.610731 L0,455.610731 L0,236.610731 Z" id="middleground-chocolate" fill="#592207"></path>
            <path d="M0,369.523939 C177.604167,354.248467 333.463542,346.610731 467.578125,346.610731 C601.692708,346.610731 845.833333,354.248467 1200,369.523939 L1200,478.610731 L0,478.610731 L0,369.523939 Z" id="foreground-vanilla" fill="#FFF6C6"></path>
            <g id="sugar-cones" transform="translate(10.861607, 0.000000)" stroke="#E0AB6E">
                <g id="sugarc-13" transform="translate(1127.335312, 76.892665) rotate(-176.000000) translate(-1127.335312, -76.892665) translate(1075.335312, 23.233586)">
                    <path d="M101.009797,-2.5 C105.013787,10.9972709 105.633901,22.036905 103.079003,30.6333854 C100.632072,38.8665892 95.3298204,44.980029 87.1064885,48.9289916 L87.024,48.967 L81.8213892,107.5 L20.4064424,107.5 L15.1852087,48.7662767 C7.16941354,44.8130755 1.91694215,38.771531 -0.629399449,30.6821324 C-3.33939599,22.0728232 -2.92839519,11.019176 0.7964531,-2.5 L0.7964531,-2.5 Z" id="sc-13" stroke-width="5" fill="#FFD19C"></path>
                    <line x1="16.7920951" y1="63.420771" x2="70.4029158" y2="106.54864" id="sc-13-l6" stroke-width="4"></line>
                    <line x1="33.4595424" y1="48.5339601" x2="83.4595424" y2="94.5339601" id="sc-13-l5" stroke-width="4"></line>
                    <line x1="71.6618541" y1="49.8024517" x2="19.8125969" y2="92.280372" id="sc-13-l4" stroke-width="4"></line>
                    <line x1="85.6393126" y1="70.3181578" x2="36.8897253" y2="107.125293" id="sc-13-l3" stroke-width="4"></line>
                    <path d="M12.8661053,47.9038911 C29.7912261,49.2372244 42.6245594,49.9038911 51.3661053,49.9038911 C60.1076512,49.9038911 72.9409845,49.2372244 89.8661053,47.9038911" id="sc-13-l2" stroke-width="5"></path>
                    <path d="M-2.27373675e-13,6.82937387 C22.8599034,8.1627072 40.1932367,8.82937387 52,8.82937387 C63.8067633,8.82937387 81.1400966,8.1627072 104,6.82937387" id="sc-13-l1" stroke-width="4"></path>
                </g>
                <g id="sugarc-12" transform="translate(975.138393, 72.110731) rotate(-184.000000) translate(-975.138393, -72.110731) translate(928.138393, 23.610731)">
                    <path d="M92.1885455,-2.5 C95.8622455,9.8445859 96.4312713,19.9336451 94.1060219,27.7817236 C91.9250607,35.1428071 87.2524049,40.6487366 80.0359842,44.2554509 L80.0359842,44.2554509 L74.90422,97.5 L19.0781429,97.5 L14.3617609,44.2740116 C7.13648873,40.6652057 2.39901375,35.1708374 0.0952186393,27.8295302 C-2.37150789,19.9690234 -1.9924184,9.86618418 1.42754969,-2.5 L1.42754969,-2.5 Z" id="sc-12" stroke-width="5" fill="#FFD19C"></path>
                    <line x1="15.273315" y1="57.8095359" x2="64" y2="97" id="sc-12-l6" stroke-width="4"></line>
                    <line x1="30" y1="45" x2="75" y2="86" id="sc-12-l5" stroke-width="4"></line>
                    <line x1="64.3810846" y1="45.4174755" x2="19.0780543" y2="82.7137718" id="sc-12-l4" stroke-width="4"></line>
                    <line x1="77" y1="64" x2="34" y2="96.8582756" id="sc-12-l3" stroke-width="4"></line>
                    <path d="M13,44 C27.9468599,45.3333333 39.2801932,46 47,46 C54.7198068,46 66.0531401,45.3333333 81,44" id="sc-12-l2" stroke-width="5"></path>
                    <path d="M0,7 C20.6618357,8.33333333 36.3285024,9 47,9 C57.6714976,9 73.3381643,8.33333333 94,7" id="sc-12-l1" stroke-width="4"></path>
                </g>
                <g id="sugarc-11" transform="translate(886.517914, 63.267609) scale(-1, 1) rotate(175.000000) translate(-886.517914, -63.267609) translate(834.017914, 8.896521)">
                    <path d="M2.43878005,-2.5 L102.661923,-2.5 C106.659794,11.1099443 107.280239,22.2426457 104.72794,30.9121681 C102.28212,39.2200092 96.9798681,45.385822 88.7630877,49.3690125 L88.673,49.412 L83.4704076,108.5 L22.0516392,108.5 L16.8305461,49.208505 C8.81575789,45.2201369 3.56152139,39.1255535 1.01568807,30.9607431 C-1.69150806,22.2784218 -1.28011475,11.1317535 2.43878005,-2.5 L2.43878005,-2.5 Z" id="sc-11" stroke-width="5" fill="#FFD19C"></path>
                    <line x1="18.9662623" y1="66.1501314" x2="71.7623638" y2="108.742177" id="sc-11-l6" stroke-width="4"></line>
                    <line x1="33.5760649" y1="50.5714657" x2="83.5760649" y2="96.5714657" id="sc-11-l5" stroke-width="4"></line>
                    <line x1="71.6721699" y1="51.0465929" x2="21.4448971" y2="92.2688151" id="sc-11-l4" stroke-width="4"></line>
                    <line x1="86.006524" y1="71.3343667" x2="38.006524" y2="108.175464" id="sc-11-l3" stroke-width="4"></line>
                    <path d="M16.6738598,49.0114159 C32.9395602,50.3447492 45.2728936,51.0114159 53.6738598,51.0114159 C62.0748259,51.0114159 74.4081593,50.3447492 90.6738598,49.0114159" id="sc-11-l2" stroke-width="5"></path>
                    <path d="M0,8.85858288 C23.0797101,10.1919162 40.5797101,10.8585829 52.5,10.8585829 C64.4202899,10.8585829 81.9202899,10.1919162 105,8.85858288" id="sc-11-l1" stroke-width="4"></path>
                </g>
                <g id="sugarc-8" transform="translate(654.138393, 69.110731) scale(-1, 1) rotate(-178.000000) translate(-654.138393, -69.110731) translate(607.138393, 20.610731)">
                    <path d="M92.1885455,-2.5 C95.8622455,9.8445859 96.4312713,19.9336451 94.1060219,27.7817236 C91.9250607,35.1428071 87.2524049,40.6487366 80.0359842,44.2554509 L80.0359842,44.2554509 L74.90422,97.5 L19.0781429,97.5 L14.3617609,44.2740116 C7.13648873,40.6652057 2.39901375,35.1708374 0.0952186393,27.8295302 C-2.37150789,19.9690234 -1.9924184,9.86618418 1.42754969,-2.5 L1.42754969,-2.5 Z" id="sc-8" stroke-width="5" fill="#FFD19C"></path>
                    <line x1="16.3155301" y1="58.0767064" x2="64" y2="97" id="sc-8-l6" stroke-width="4"></line>
                    <line x1="30" y1="45" x2="75" y2="86" id="sc-8-l5" stroke-width="4"></line>
                    <line x1="64.3810846" y1="45.4174755" x2="19.0780543" y2="82.7137718" id="sc-8-l4" stroke-width="4"></line>
                    <line x1="77" y1="64" x2="34" y2="96.8582756" id="sc-8-l3" stroke-width="4"></line>
                    <path d="M13,44 C27.9468599,45.3333333 39.2801932,46 47,46 C54.7198068,46 66.0531401,45.3333333 81,44" id="sc-8-l2" stroke-width="5"></path>
                    <path d="M0,7 C20.6618357,8.33333333 36.3285024,9 47,9 C57.6714976,9 73.3381643,8.33333333 94,7" id="sc-8-l1" stroke-width="4"></path>
                </g>
                <g id="sugarc-9" transform="translate(737.261337, 70.026307) rotate(-178.000000) translate(-737.261337, -70.026307) translate(697.176619, 28.420803)">
                    <path d="M79.7318441,-2.5 C82.984202,8.23405287 83.4862293,16.9946059 81.4565016,23.7968739 C79.5728567,30.1095717 75.5618,34.8514772 69.3687939,37.9763428 L69.3687939,37.9763428 L64.9499716,83.5 L16.3711738,83.5 L12.3095415,37.9912048 C6.11144093,34.8660108 2.04570129,30.1363617 0.0569041547,23.8433974 C-2.0965899,17.029298 -1.75960958,8.25527956 1.27183557,-2.5 L1.27183557,-2.5 Z" id="sc-9" stroke-width="5" fill="#FFD19C"></path>
                    <line x1="12.4136459" y1="47.990676" x2="55.0807843" y2="83.2110082" id="sc-9-l6" stroke-width="4"></line>
                    <line x1="25.725393" y1="38.8506552" x2="64.725393" y2="73.8506552" id="sc-9-l5" stroke-width="4"></line>
                    <line x1="55.136344" y1="38.5285135" x2="16.727253" y2="70.9174024" id="sc-9-l4" stroke-width="4"></line>
                    <line x1="66.6599465" y1="54.1012298" x2="29.1604183" y2="82.6529906" id="sc-9-l3" stroke-width="4"></line>
                    <path d="M11.1173931,38.0183635 C23.8661853,39.3516968 33.532852,40.0183635 40.1173931,40.0183635 C46.7019341,40.0183635 56.3686008,39.3516968 69.1173931,38.0183635" id="sc-9-l2" stroke-width="5"></path>
                    <path d="M-2.27373675e-13,6.00295755 C17.5845411,7.33629088 30.9178744,8.00295755 40,8.00295755 C49.0821256,8.00295755 62.4154589,7.33629088 80,6.00295755" id="sc-9-l1" stroke-width="4"></path>
                </g>
                <g id="sugarc-10" transform="translate(802.026727, 71.458662) scale(-1, 1) rotate(-178.000000) translate(-802.026727, -71.458662) translate(748.526727, 16.303398)">
                    <path d="M104.413672,-2.5 C108.477715,11.3405192 109.108364,22.6633546 106.510112,31.4825669 C104.017923,39.9417706 98.6123097,46.2177416 90.241144,50.266444 L90.141,50.314 L84.8378856,110.5 L22.3048796,110.5 L16.9837337,50.1073629 C8.8104309,46.0499762 3.45300929,39.8459112 0.858539836,31.5315323 C-1.89750494,22.6993602 -1.47975425,11.3624661 2.30025027,-2.5 L2.30025027,-2.5 Z" id="sc-10" stroke-width="5" fill="#FFD19C"></path>
                    <line x1="18.7812109" y1="67.3105288" x2="71.7812109" y2="110.310529" id="sc-10-l6" stroke-width="4"></line>
                    <line x1="34.3009301" y1="51.7952601" x2="85.3009301" y2="97.7952601" id="sc-10-l5" stroke-width="4"></line>
                    <line x1="72.5216526" y1="51.7054332" x2="21.3095313" y2="93.9091369" id="sc-10-l4" stroke-width="4"></line>
                    <line x1="88.2137697" y1="71.8018428" x2="37.8755534" y2="109.556507" id="sc-10-l3" stroke-width="4"></line>
                    <path d="M14.4669972,50.0192773 C31.392118,51.3526106 44.2254513,52.0192773 52.9669972,52.0192773 C61.7085431,52.0192773 74.5418764,51.3526106 91.4669972,50.0192773" id="sc-10-l2" stroke-width="5"></path>
                    <path d="M-2.27373675e-13,7.97506354 C23.5193237,9.30839687 41.352657,9.97506354 53.5,9.97506354 C65.647343,9.97506354 83.4806763,9.30839687 107,7.97506354" id="sc-10-l1" stroke-width="4"></path>
                </g>
                <g id="sugarc-7" transform="translate(570.347223, 62.994386) rotate(-178.000000) translate(-570.347223, -62.994386) translate(530.347223, 21.388881)">
                    <path d="M0.272444742,-2.5 L78.7324532,-2.5 C81.9848112,8.23405287 82.4868385,16.9946059 80.4571108,23.7968739 C78.5734659,30.1095717 74.5624091,34.8514772 68.369403,37.9763428 L68.369403,37.9763428 L63.9505808,83.5 L15.3717829,83.5 L11.3101506,37.9912048 C5.1120501,34.8660108 1.04631046,30.1363617 -0.942486672,23.8433974 C-3.09598072,17.029298 -2.75900041,8.25527956 0.272444742,-2.5 L0.272444742,-2.5 Z" id="sc-7" stroke-width="5" fill="#FFD19C"></path>
                    <line x1="12.4485454" y1="48.9551674" x2="54.0813934" y2="83.2110082" id="sc-7-l6" stroke-width="4"></line>
                    <line x1="24.6911027" y1="37.8512644" x2="63.6911027" y2="72.8512644" id="sc-7-l5" stroke-width="4"></line>
                    <line x1="54.1369531" y1="38.5285135" x2="15.7278622" y2="70.9174024" id="sc-7-l4" stroke-width="4"></line>
                    <line x1="66.6599465" y1="54.0663303" x2="28.1610275" y2="82.6529906" id="sc-7-l3" stroke-width="4"></line>
                    <path d="M9.08249357,36.9840732 C22.4907061,38.3174065 32.6573728,38.9840732 39.5824936,38.9840732 C46.5076143,38.9840732 56.674281,38.3174065 70.0824936,36.9840732" id="sc-7-l2" stroke-width="5"></path>
                    <path d="M0,5.96805805 C17.5845411,7.30139138 30.9178744,7.96805805 40,7.96805805 C49.0821256,7.96805805 62.4154589,7.30139138 80,5.96805805" id="sc-7-l1" stroke-width="4"></path>
                </g>
                <g id="sugarc-6" transform="translate(493.138393, 50.110731) rotate(-178.000000) translate(-493.138393, -50.110731) translate(446.138393, 1.610731)">
                    <path d="M92.1885455,-2.5 C95.8622455,9.8445859 96.4312713,19.9336451 94.1060219,27.7817236 C91.9250607,35.1428071 87.2524049,40.6487366 80.0359842,44.2554509 L80.0359842,44.2554509 L74.90422,97.5 L19.0781429,97.5 L14.3617609,44.2740116 C7.13648873,40.6652057 2.39901375,35.1708374 0.0952186393,27.8295302 C-2.37150789,19.9690234 -1.9924184,9.86618418 1.42754969,-2.5 L1.42754969,-2.5 Z" id="sc-6" stroke-width="5" fill="#FFD19C"></path>
                    <line x1="16.3155301" y1="58.0767064" x2="64" y2="97" id="sc-6-l6" stroke-width="4"></line>
                    <line x1="30" y1="45" x2="75" y2="86" id="sc-6-l5" stroke-width="4"></line>
                    <line x1="64.3810846" y1="45.4174755" x2="19.0780543" y2="82.7137718" id="sc-6-l4" stroke-width="4"></line>
                    <line x1="77" y1="64" x2="34" y2="96.8582756" id="sc-6-l3" stroke-width="4"></line>
                    <path d="M13,44 C27.9468599,45.3333333 39.2801932,46 47,46 C54.7198068,46 66.0531401,45.3333333 81,44" id="sc-6-l2" stroke-width="5"></path>
                    <path d="M0,7 C20.6618357,8.33333333 36.3285024,9 47,9 C57.6714976,9 73.3381643,8.33333333 94,7" id="sc-6-l1" stroke-width="4"></path>
                </g>
                <g id="sugarc-5" transform="translate(407.315116, 62.279964) scale(-1, 1) rotate(-177.000000) translate(-407.315116, -62.279964) translate(355.815116, 8.934102)">
                    <path d="M100.671969,-2.5 C104.64293,10.8820059 105.257938,21.8265885 102.725997,30.3482368 C100.301119,38.5095446 95.0468052,44.5697552 86.8989623,48.4836415 L86.828,48.516 L81.6757285,106.5 L20.8178987,106.5 L15.6475811,48.3172825 C7.71064713,44.3984358 2.50958887,38.4115663 -0.0125607813,30.3969823 C-2.69831739,21.8625079 -2.2905117,10.9039145 1.40385782,-2.5 L1.40385782,-2.5 Z" id="sc-5" stroke-width="5" fill="#FFD19C"></path>
                    <line x1="16.7728622" y1="62.8455923" x2="69.9742428" y2="106.691724" id="sc-5-l6" stroke-width="4"></line>
                    <line x1="32.7166685" y1="49.3396276" x2="81.7166685" y2="94.3396276" id="sc-5-l5" stroke-width="4"></line>
                    <line x1="70.1381987" y1="49.2012401" x2="20.8957745" y2="90.4234623" id="sc-5-l4" stroke-width="4"></line>
                    <line x1="83.8476434" y1="70.5263588" x2="36.8476434" y2="106.37175" id="sc-5-l3" stroke-width="4"></line>
                    <path d="M14.9031356,48.0302794 C31.1688361,49.3636127 43.5021694,50.0302794 51.9031356,50.0302794 C60.3041018,50.0302794 72.6374351,49.3636127 88.9031356,48.0302794" id="sc-5-l2" stroke-width="5"></path>
                    <path d="M-1.13686838e-13,7.95425809 C22.6400966,9.28759143 39.8067633,9.95425809 51.5,9.95425809 C63.1932367,9.95425809 80.3599034,9.28759143 103,7.95425809" id="sc-5-l1" stroke-width="4"></path>
                </g>
                <g id="sugarc-4" transform="translate(329.982258, 64.390188) scale(-1, 1) rotate(175.000000) translate(-329.982258, -64.390188) translate(286.482258, 19.144319)">
                    <path d="M85.6295772,-2.5 C89.0720637,9.03765205 89.6052946,18.4612149 87.4409285,25.785285 C85.4204138,32.6225716 81.1028545,37.7454396 74.4383315,41.1116811 L74.4383315,41.1116811 L69.6905818,90.5 L17.7642184,90.5 L13.3998451,41.1281097 C6.72858036,37.7607417 2.35180562,32.6497129 0.218038753,25.8321237 C-2.07800938,18.4960304 -1.72126577,9.05892237 1.48525525,-2.5 L1.48525525,-2.5 Z" id="sc-4" stroke-width="5" fill="#FFD19C"></path>
                    <line x1="15.6653064" y1="54.636178" x2="59.6653064" y2="89.636178" id="sc-4-l6" stroke-width="4"></line>
                    <line x1="27.7045075" y1="41.6302648" x2="69.7045075" y2="79.6302648" id="sc-4-l5" stroke-width="4"></line>
                    <line x1="59.9442172" y1="41.8522745" x2="17.5957323" y2="76.2041263" id="sc-4-l4" stroke-width="4"></line>
                    <line x1="71.692852" y1="57.5292361" x2="29.7036521" y2="89.9931713" id="sc-4-l3" stroke-width="4"></line>
                    <path d="M11.9747112,40.0114159 C26.042344,41.3447492 36.7090107,42.0114159 43.9747112,42.0114159 C51.2404116,42.0114159 61.9070783,41.3447492 75.9747112,40.0114159" id="sc-4-l2" stroke-width="5"></path>
                    <path d="M1.13686838e-13,5.87932894 C19.1231884,7.21266228 33.6231884,7.87932894 43.5,7.87932894 C53.3768116,7.87932894 67.8768116,7.21266228 87,5.87932894" id="sc-4-l1" stroke-width="4"></path>
                </g>
                <g id="sugarc-3" transform="translate(244.138393, 65.110731) rotate(-180.000000) translate(-244.138393, -65.110731) translate(197.138393, 16.610731)">
                    <path d="M92.1885455,-2.5 C95.8622455,9.8445859 96.4312713,19.9336451 94.1060219,27.7817236 C91.9250607,35.1428071 87.2524049,40.6487366 80.0359842,44.2554509 L80.0359842,44.2554509 L74.90422,97.5 L19.0781429,97.5 L14.3617609,44.2740116 C7.13648873,40.6652057 2.39901375,35.1708374 0.0952186393,27.8295302 C-2.37150789,19.9690234 -1.9924184,9.86618418 1.42754969,-2.5 L1.42754969,-2.5 Z" id="sc-3" stroke-width="5" fill="#FFD19C"></path>
                    <line x1="16" y1="58" x2="64" y2="97" id="sc-3-l6" stroke-width="4"></line>
                    <line x1="30" y1="45" x2="75" y2="86" id="sc-3-l5" stroke-width="4"></line>
                    <line x1="64.3810846" y1="45.4174755" x2="19.0780543" y2="82.7137718" id="sc-3-l4" stroke-width="4"></line>
                    <line x1="77" y1="64" x2="34" y2="96.8582756" id="sc-3-l3" stroke-width="4"></line>
                    <path d="M13,44 C27.9468599,45.3333333 39.2801932,46 47,46 C54.7198068,46 66.0531401,45.3333333 81,44" id="sc-3-l2" stroke-width="5"></path>
                    <path d="M0,7 C20.6618357,8.33333333 36.3285024,9 47,9 C57.6714976,9 73.3381643,8.33333333 94,7" id="sc-3-l1" stroke-width="4"></path>
                </g>
                <g id="sugarc-2" transform="translate(167.988455, 78.369525) rotate(-186.000000) translate(-167.988455, -78.369525) translate(116.488455, 25.171710)">
                    <path d="M101.403042,-2.5 C105.374003,10.8820059 105.989011,21.8265885 103.457069,30.3482368 C101.032192,38.5095446 95.7778778,44.5697552 87.6300349,48.4836415 L87.559,48.516 L82.4068011,106.5 L21.5489714,106.5 L16.3786537,48.3172825 C8.44171974,44.3984358 3.24066147,38.4115663 0.718511824,30.3969823 C-1.96724479,21.8625079 -1.5594391,10.9039145 2.13493043,-2.5 L2.13493043,-2.5 Z" id="sc-2" stroke-width="5" fill="#FFD19C"></path>
                    <line x1="18.9458302" y1="64.3956306" x2="69.9458302" y2="106.395631" id="sc-2-l6" stroke-width="4"></line>
                    <line x1="33.3957557" y1="49.7294047" x2="82.3957557" y2="94.7294047" id="sc-2-l5" stroke-width="4"></line>
                    <line x1="69.8437621" y1="49.8869582" x2="20.6013379" y2="91.1091804" id="sc-2-l4" stroke-width="4"></line>
                    <line x1="84.748174" y1="70.1671364" x2="37.748174" y2="106.012528" id="sc-2-l3" stroke-width="4"></line>
                    <path d="M14.6896815,48.958692 C30.955382,50.2920253 43.2887154,50.958692 51.6896815,50.958692 C60.0906477,50.958692 72.4239811,50.2920253 88.6896815,48.958692" id="sc-2-l2" stroke-width="5"></path>
                    <path d="M0,7.71291618 C22.6400966,9.04624952 39.8067633,9.71291618 51.5,9.71291618 C63.1932367,9.71291618 80.3599034,9.04624952 103,7.71291618" id="sc-2-l1" stroke-width="4"></path>
                </g>
                <g id="sugarc-1" transform="translate(49.484593, 78.058302) scale(-1, 1) rotate(-177.000000) translate(-49.484593, -78.058302) translate(2.484593, 29.353639)">
                    <path d="M93.1368091,-2.5 C96.8105091,9.8445859 97.3795349,19.9336451 95.0542856,27.7817236 C92.8733244,35.1428071 88.2006685,40.6487366 80.9842478,44.2554509 L80.9842478,44.2554509 L75.8524837,97.5 L20.0264065,97.5 L15.3100245,44.2740116 C8.08475237,40.6652057 3.34727739,35.1708374 1.04348228,27.8295302 C-1.42324425,19.9690234 -1.04415476,9.86618418 2.37581333,-2.5 L2.37581333,-2.5 Z" id="sc-1" stroke-width="5" fill="#FFD19C"></path>
                    <line x1="17.6775295" y1="59.4093259" x2="63.6775295" y2="97.4093259" id="sc-1-l6" stroke-width="4"></line>
                    <line x1="30.0311436" y1="45.5808291" x2="75.7341342" y2="87.7018492" id="sc-1-l5" stroke-width="4"></line>
                    <line x1="63.5274907" y1="45.7989663" x2="18.2244604" y2="83.0952626" id="sc-1-l4" stroke-width="4"></line>
                    <line x1="77.5403546" y1="64.026778" x2="34.5403546" y2="96.8850536" id="sc-1-l3" stroke-width="4"></line>
                    <path d="M14.1077954,44.9559529 C28.8348485,46.2892863 40.0015152,46.9559529 47.6077954,46.9559529 C55.2140756,46.9559529 66.3807422,46.2892863 81.1077954,44.9559529" id="sc-1-l2" stroke-width="5"></path>
                    <path d="M2.84217094e-14,7.68826471 C20.6618357,9.02159805 36.3285024,9.68826471 47,9.68826471 C57.6714976,9.68826471 73.3381643,9.02159805 94,7.68826471" id="sc-1-l1" stroke-width="4"></path>
                </g>
            </g>
            <g id="wafer-cones" transform="translate(0.000000, 7.610731)" stroke="#AE722E" stroke-width="10">
                <g id="wafer-cones-right" transform="translate(783.000000, 0.000000)">
                    <g id="waferc-6" transform="translate(168.000000, 0.000000)">
                        <path d="M124.5,-19.2161121 L255.52577,467 L-6.52577046,467 L124.5,-19.2161121 Z" id="wc-6-cone" fill="#FFB868" stroke-linejoin="round"></path>
                        <line x1="223" y1="354" x2="125" y2="462" id="wc-6-l6" stroke-linecap="square"></line>
                        <line x1="200" y1="266" x2="20" y2="462" id="wc-6-l5" stroke-linecap="square"></line>
                        <line x1="160" y1="121" x2="59" y2="231" id="wc-6-l4" stroke-linecap="square"></line>
                        <line x1="59" y1="231" x2="220" y2="347" id="wc-6-l3" stroke-linecap="square"></line>
                        <line x1="30" y1="345" x2="200" y2="464" id="wc-6-l2" stroke-linecap="square"></line>
                        <line x1="91" y1="110" x2="173" y2="171" id="wc-6-l1" stroke-linecap="square"></line>
                    </g>
                    <g id="waferc-4" transform="translate(0.000000, 129.000000)">
                        <path d="M90,-19.1637679 L186.530748,338 L-6.53074808,338 L90,-19.1637679 Z" id="wc-4-cone" fill="#FFB868" stroke-linejoin="round"></path>
                        <line x1="161.391373" y1="255.625841" x2="91.1085449" y2="333.90107" id="wc-4-l6" stroke-linecap="square"></line>
                        <line x1="144.385785" y1="192.622422" x2="14.1095416" y2="333.90161" id="wc-4-l5" stroke-linecap="square"></line>
                        <line x1="116.384314" y1="87.6223434" x2="43.1098039" y2="166.901623" id="wc-4-l4" stroke-linecap="square"></line>
                        <line x1="43.039039" y1="166.647645" x2="159.316817" y2="249.929696" id="wc-4-l3" stroke-linecap="square"></line>
                        <line x1="22.038881" y1="248.654006" x2="144.319583" y2="334.929006" id="wc-4-l2" stroke-linecap="square"></line>
                        <line x1="66.0390752" y1="79.6547334" x2="125.316184" y2="123.928927" id="wc-4-l1" stroke-linecap="square"></line>
                    </g>
                    <g id="waferc-5" transform="translate(207.500000, 273.000000) scale(-1, 1) translate(-207.500000, -273.000000) translate(105.000000, 82.000000)">
                        <path d="M102.5,-19.1990884 L211.527386,385 L-6.5273857,385 L102.5,-19.1990884 Z" id="wc-5-cone" fill="#FFB868" stroke-linejoin="round"></path>
                        <line x1="183.305651" y1="291.712983" x2="103.123833" y2="380.887295" id="wc-5-l6" stroke-linecap="square"></line>
                        <line x1="164.301389" y1="218.710088" x2="16.1245931" y2="379.887752" id="wc-5-l5" stroke-linecap="square"></line>
                        <line x1="131.301113" y1="99.7079156" x2="48.1246423" y2="189.888096" id="wc-5-l4" stroke-linecap="square"></line>
                        <line x1="49.0443777" y1="190.740166" x2="181.22339" y2="285.919653" id="wc-5-l3" stroke-linecap="square"></line>
                        <line x1="25.0445709" y1="283.744214" x2="165.220009" y2="381.919214" id="wc-5-l2" stroke-linecap="square"></line>
                        <line x1="75.0442852" y1="90.7420312" x2="142.225008" y2="140.919451" id="wc-5-l1" stroke-linecap="square"></line>
                    </g>
                </g>
                <g id="wafer-cones-left" transform="translate(0.000000, 0.000000)">
                    <g id="wcone-1" transform="translate(0.000000, 0.000000)">
                        <path d="M124.5,-19.2161121 L255.52577,467 L-6.52577046,467 L124.5,-19.2161121 Z" id="wc-1-cone" fill="#FFB868" stroke-linejoin="round"></path>
                        <line x1="223" y1="354" x2="125" y2="462" id="wc-1-l6" stroke-linecap="square"></line>
                        <line x1="200" y1="266" x2="20" y2="462" id="wc-1-l5" stroke-linecap="square"></line>
                        <line x1="160" y1="121" x2="59" y2="231" id="wc-1-l4" stroke-linecap="square"></line>
                        <line x1="59" y1="231" x2="220" y2="347" id="wc-1-l3" stroke-linecap="square"></line>
                        <line x1="30" y1="345" x2="200" y2="464" id="wc-1-l2" stroke-linecap="square"></line>
                        <line x1="91" y1="110" x2="173" y2="171" id="wc-1-l1" stroke-linecap="square"></line>
                    </g>
                    <g id="wcone-3" transform="translate(273.000000, 33.000000)">
                        <path d="M115.5,-19.2327315 L237.524197,434 L-6.52419693,434 L115.5,-19.2327315 Z" id="wc-3-cone" fill="#FFB868" stroke-linejoin="round"></path>
                        <line x1="207.211357" y1="328.800125" x2="116.14065" y2="428.87352" id="wc-3-l6" stroke-linecap="square"></line>
                        <line x1="185.212304" y1="246.802136" x2="18.1404808" y2="428.873202" id="wc-3-l5" stroke-linecap="square"></line>
                        <line x1="149.209592" y1="112.801267" x2="55.1409645" y2="214.873339" id="wc-3-l4" stroke-linecap="square"></line>
                        <line x1="55.0500501" y1="214.840397" x2="204.124124" y2="322.908773" id="wc-3-l3" stroke-linecap="square"></line>
                        <line x1="28.0502608" y1="320.834421" x2="186.120436" y2="430.909421" id="wc-3-l2" stroke-linecap="square"></line>
                        <line x1="85.0501465" y1="101.843879" x2="161.122436" y2="158.908395" id="wc-3-l1" stroke-linecap="square"></line>
                    </g>
                    <g id="wcone-2" transform="translate(237.500000, 273.000000) scale(-1, 1) translate(-237.500000, -273.000000) translate(135.000000, 82.000000)">
                        <path d="M102.5,-19.1990884 L211.527386,385 L-6.5273857,385 L102.5,-19.1990884 Z" id="wc-2-cone" fill="#FFB868" stroke-linejoin="round"></path>
                        <line x1="183.305651" y1="291.712983" x2="103.123833" y2="380.887295" id="wc-2-l6" stroke-linecap="square"></line>
                        <line x1="164.301389" y1="218.710088" x2="16.1245931" y2="379.887752" id="wc-2-l5" stroke-linecap="square"></line>
                        <line x1="131.301113" y1="99.7079156" x2="48.1246423" y2="189.888096" id="wc-2-l4" stroke-linecap="square"></line>
                        <line x1="49.0443777" y1="190.740166" x2="181.22339" y2="285.919653" id="wc-2-l3" stroke-linecap="square"></line>
                        <line x1="25.0445709" y1="283.744214" x2="165.220009" y2="381.919214" id="wc-2-l2" stroke-linecap="square"></line>
                        <line x1="75.0442852" y1="90.7420312" x2="142.225008" y2="140.919451" id="wc-2-l1" stroke-linecap="square"></line>
                    </g>
                </g>
            </g>
        </g>
        <g id="rocket-pop" transform="translate(582.000000, 653.513775)">
            <path d="M61.5,238.61387 L61.5,315.61387 C61.5,318.375294 60.3807119,320.875294 58.5710678,322.684938 C56.7614237,324.494582 54.2614237,325.61387 51.5,325.61387 C48.7385763,325.61387 46.2385763,324.494582 44.4289322,322.684938 C42.6192881,320.875294 41.5,318.375294 41.5,315.61387 L41.5,315.61387 L41.5,238.61387 L61.5,238.61387 Z" id="popsicle-stick" stroke="#DCA88C" stroke-width="3" fill="#F7C5AA"></path>
            <g id="rp-red" transform="translate(0.000000, 0.000000)" stroke="#A71717">
                <path d="M1,122.11387 L0.211143679,79.5156288 C0.0740984153,72.1151504 1.99312425,64.8217762 5.75467765,58.4470937 C18.0879842,37.5459114 24.836425,24.7681702 26,20.1138701 C28,12.1138701 25,10.4862245 28,6.11387008 C31,1.74151566 49.8453404,-3.45270891 68,3.11387008 C77,6.4862245 71,16.1138701 75,23.1138701 C77.1794885,26.927975 81.8082835,35.4180286 88.886385,48.5840311 C92.251095,54.8427404 94.1528768,61.7829141 94.4486961,68.8825765 L97,130.11387 L97,130.11387 L97,150.11387 L2,150.11387 L1,122.11387 Z" id="red-top" stroke-width="4" fill="#D43535"></path>
                <line x1="30.5" y1="50.6138701" x2="30.5" y2="113.61387" id="red-l1" stroke-width="6" stroke-linecap="round"></line>
                <line x1="64.5" y1="50.6138701" x2="64.5" y2="113.61387" id="red-l2" stroke-width="6" stroke-linecap="round"></line>
                <path d="M67,27.1138701 L65.816737,27.5082911 C54.8949892,31.1488737 43.0928029,31.1858837 32.1484375,27.6138701 L32.1484375,27.6138701 L32.1484375,27.6138701" id="red-l3" stroke-width="6" stroke-linecap="round"></path>
            </g>
            <g id="rp-white" transform="translate(1.000000, 122.113870)" stroke="#ABCDDD">
                <path d="M1,65 L0,0 C9.33333333,0.666666667 14.6666667,4 16,10 C18,19 25,19 29,19 C33,19 40,12 46,12 C52,12 59,20 66,20 C73,20 77,5 84,3 C91,1 96,6 96,8 C96,9.33333333 96,29.3333333 96,68 L96,90 L1,90 L1,65 Z" id="white-middle" stroke-width="4" fill="#E6F7FF"></path>
                <line x1="29.5" y1="30.265625" x2="29.5" y2="63.734375" id="white-l1" stroke-width="6" stroke-linecap="round"></line>
                <line x1="63.5" y1="30.265625" x2="63.5" y2="63.734375" id="white-l2" stroke-width="6" stroke-linecap="round"></line>
            </g>
            <g id="rp-blue" transform="translate(2.000000, 186.295688)" stroke="#00297B">
                <path d="M0,0.818181818 L0,38.4425351 C-8.47631074e-15,41.7534771 1.81791282,44.797058 4.73310159,46.366775 L17.3607288,53.1662666 C23.0612999,56.2358048 29.3239381,58.120358 35.7718045,58.7065277 L37,58.8181818 L37,58.8181818 L61,58.8181818 L89.2142372,48.0303852 C92.6986556,46.6981076 95,43.3543524 95,39.6239187 L95,3.81818182 L95,3.81818182 C91,1.81818182 87.6666667,1.48484848 85,2.81818182 C81,4.81818182 73,17.8181818 66,17.8181818 C59,17.8181818 57,9.81818182 48,9.81818182 C39,9.81818182 34,19.8181818 27,17.8181818 C20,15.8181818 19,13.8181818 15,5.81818182 C12.3333333,0.484848485 7.33333333,-1.18181818 0,0.818181818 Z" id="blue-bottom" stroke-width="4" fill="#0D47C1"></path>
                <line x1="28.5" y1="28.9666193" x2="28.5" y2="47.6697443" id="blue-l1" stroke-width="6" stroke-linecap="round"></line>
                <line x1="62.5" y1="28.9666193" x2="62.5" y2="47.6697443" id="blue-l1" stroke-width="6" stroke-linecap="round"></line>
            </g>
        </g>
    </g>
</svg>